 <svg version="1.0" xmlns="http://www.w3.org/2000/svg" width="700.000000pt" height="700.000000pt" viewBox="0 0 700.000000 700.000000" preserveAspectRatio="xMidYMid meet">
<metadata>
Created by potrace 1.12, written by Peter Selinger 2001-2015
</metadata>
<g transform="translate(0.000000,700.000000) scale(0.100000,-0.100000)" fill="#000000" stroke="none">
<path d="M1350 6993 c-189 -32 -342 -165 -406 -353 -18 -53 -19 -139 -19
-2575 0 -2447 1 -2522 19 -2575 67 -196 228 -328 426 -350 47 -6 321 -10 609
-10 l524 0 119 117 c65 64 118 120 118 123 0 4 -28 20 -62 36 -33 16 -84 44
-112 61 l-50 33 -567 0 -566 0 -34 23 c-70 47 -64 -176 -64 2542 0 2058 2
2465 14 2492 7 18 30 43 50 55 l36 23 1880 0 c1814 0 1881 -1 1907 -19 15 -10
37 -33 48 -51 20 -32 20 -46 20 -1302 l0 -1270 58 -22 c70 -26 160 -92 205
-151 39 -53 77 -124 77 -146 0 -8 5 -12 10 -9 14 9 14 2851 -1 2931 -34 187
-183 339 -380 388 -59 15 -238 16 -1950 15 -1036 -1 -1895 -4 -1909 -6z"></path>
<path d="M1880 5809 c-61 -25 -100 -85 -100 -154 0 -79 51 -144 130 -165 26
-7 470 -9 1367 -8 1267 3 1330 4 1365 21 83 42 118 138 79 219 -11 24 -36 55
-53 69 l-33 24 -1365 2 c-893 1 -1374 -2 -1390 -8z"></path>
<path d="M1874 4925 c-94 -47 -125 -160 -65 -242 58 -79 -66 -74 1463 -71
l1363 3 33 24 c99 75 90 217 -18 284 l-35 22 -1345 3 -1346 2 -50 -25z"></path>
<path d="M4171 3994 c-19 -8 -99 -79 -178 -159 -182 -182 -174 -180 -408 -140
-200 34 -247 35 -302 7 -77 -40 -96 -81 -124 -276 -41 -281 -39 -279 -265
-392 -220 -109 -254 -142 -254 -250 0 -52 8 -73 90 -235 79 -156 90 -184 90
-229 0 -46 -11 -73 -90 -227 -84 -162 -90 -178 -90 -234 0 -110 28 -138 246
-248 236 -118 232 -113 274 -401 24 -168 44 -219 102 -258 57 -37 124 -39 306
-8 176 30 209 32 259 11 21 -9 94 -73 174 -153 76 -75 153 -145 171 -154 40
-22 107 -23 155 -3 22 9 95 73 178 155 141 140 184 170 246 170 18 0 102 -12
188 -26 181 -30 252 -29 300 5 55 40 79 89 96 203 9 57 22 141 29 188 15 97
32 137 74 172 16 13 100 60 187 104 90 45 172 93 190 112 39 39 60 106 51 159
-4 21 -46 115 -94 208 -116 230 -116 222 0 451 94 183 106 226 88 292 -18 69
-53 97 -245 195 -204 105 -228 127 -245 234 -5 32 -19 118 -30 192 -23 149
-33 174 -84 219 -49 43 -102 56 -179 43 -34 -6 -123 -20 -197 -32 -194 -30
-190 -32 -370 146 -87 86 -160 150 -182 160 -47 19 -112 19 -157 -1z m249
-449 c139 -20 268 -61 390 -127 123 -65 176 -104 278 -203 106 -101 168 -185
236 -317 218 -422 168 -924 -130 -1298 -206 -260 -510 -424 -831 -449 -375
-29 -703 89 -963 349 -258 259 -374 576 -348 956 32 468 361 885 820 1039 184
61 354 77 548 50z"></path>
<path d="M4065 3364 c-455 -90 -796 -463 -833 -910 -17 -204 13 -374 98 -549
57 -119 121 -205 221 -300 122 -115 265 -197 429 -245 92 -27 328 -38 436 -21
320 50 607 262 759 561 40 80 64 152 86 265 92 477 -172 957 -629 1141 -171
69 -396 92 -567 58z"></path>
<path d="M2717 952 c-285 -286 -287 -289 -287 -331 0 -49 21 -85 58 -100 22
-9 181 -41 340 -68 18 -3 35 -10 38 -14 3 -5 14 -55 24 -111 46 -243 53 -268
78 -293 29 -30 62 -40 98 -31 15 4 172 154 400 382 l376 376 -34 35 -33 35
-70 -6 c-38 -4 -101 -13 -140 -22 -123 -26 -224 -29 -290 -8 -128 40 -202 132
-234 291 -12 56 -21 113 -21 127 0 14 -4 26 -8 26 -4 0 -137 -130 -295 -288z"></path>
<path d="M5488 1234 c-3 -5 -8 -36 -12 -69 -16 -142 -41 -209 -109 -282 -95
-103 -185 -120 -427 -79 -196 33 -201 33 -245 -6 l-37 -31 369 -369 c202 -203
380 -376 395 -384 39 -20 67 -17 103 11 38 28 38 28 79 249 l31 169 95 19
c295 58 294 58 319 82 19 19 24 35 24 71 l0 47 -290 290 c-160 160 -293 286
-295 282z"></path>
</g>
</svg>